HIERARCHY
ROOT Hips
{
	OFFSET 0.00000 0.00000 0.00000
	CHANNELS 6 Xposition Yposition Zposition Zrotation Yrotation Xrotation 
	JOINT LHipJoint
	{
		OFFSET 0 0 0
		CHANNELS 3 Zrotation Yrotation Xrotation
		JOINT LeftHip
		{
			OFFSET 1.57358 -1.76629 0.73362
			CHANNELS 3 Zrotation Yrotation Xrotation
			JOINT LeftKnee
			{
				OFFSET 2.40600 -6.61045 0.00000
				CHANNELS 3 Zrotation Yrotation Xrotation
				JOINT LeftAnkle
				{
					OFFSET 2.66168 -7.31291 0.00000
					CHANNELS 3 Zrotation Yrotation Xrotation
					JOINT LeftToe
					{
						OFFSET 0.20870 -0.57341 2.12506
						CHANNELS 3 Zrotation Yrotation Xrotation
						End Site
						{
							OFFSET 0.00000 -0.00000 1.10557
						}
					}
				}
			}
		}
	}
	JOINT RHipJoint
	{
		OFFSET 0 0 0
		CHANNELS 3 Zrotation Yrotation Xrotation
		JOINT RightHip
		{
			OFFSET -1.49299 -1.76629 0.73362
			CHANNELS 3 Zrotation Yrotation Xrotation
			JOINT RightKnee
			{
				OFFSET -2.43663 -6.69460 0.00000
				CHANNELS 3 Zrotation Yrotation Xrotation
				JOINT RightAnkle
				{
					OFFSET -2.62959 -7.22474 0.00000
					CHANNELS 3 Zrotation Yrotation Xrotation
					JOINT RightToe
					{
						OFFSET -0.25784 -0.70841 2.21862
						CHANNELS 3 Zrotation Yrotation Xrotation
						End Site
						{
							OFFSET -0.00000 -0.00000 1.16452
						}
					}
				}
			}
		}
	}
	JOINT lowerback
	{
		OFFSET 0 0 0
		CHANNELS 3 Zrotation Yrotation Xrotation
		JOINT Chest
		{
			OFFSET -0.00034 2.12399 -0.25450
			CHANNELS 3 Zrotation Yrotation Xrotation
			JOINT Chest2
			{
				OFFSET 0.05594 2.14379 -0.03318
				CHANNELS 3 Zrotation Yrotation Xrotation
				JOINT lowerneck
				{
					OFFSET 0 0 0
					CHANNELS 3 Zrotation Yrotation Xrotation
					JOINT Neck
					{
						OFFSET -0.09835 1.62725 0.24211
						CHANNELS 3 Zrotation Yrotation Xrotation
						JOINT Head
						{
							OFFSET 0.10849 1.66041 -0.22648
							CHANNELS 3 Zrotation Yrotation Xrotation
							End Site
							{
								OFFSET 0.04385 1.68267 -0.10541
							}
						}
					}
				}
				JOINT LeftCollar
				{
					OFFSET 0 0 0
					CHANNELS 3 Zrotation Yrotation Xrotation
					JOINT LeftShoulder
					{
						OFFSET 3.29108 0.79398 -0.68179
CHANNELS 3 Zrotation Xrotation Yrotation
						JOINT LeftElbow
						{
OFFSET 0 -5.153100 -0.000000
CHANNELS 3 Zrotation Xrotation Yrotation
							JOINT LeftWrist
							{
OFFSET 0 -3.751380 -0.000000
CHANNELS 3 Zrotation Xrotation Yrotation
								JOINT lhand
								{
									OFFSET 0 0 0
CHANNELS 3 Zrotation Xrotation Yrotation
									JOINT LFingers
									{
OFFSET 0 -0.529170 0.000000
CHANNELS 3 Zrotation Xrotation Yrotation
										End Site
										{
OFFSET 0 -0.426630 0.000000
										}
									}
								}
								JOINT LThumb
								{
OFFSET 0 0.000000 0.000000
CHANNELS 3 Zrotation Xrotation Yrotation
									End Site
									{
OFFSET 0 -0.433150 0.433150
									}
								}
							}
						}
					}
				}
				JOINT RightCollar
				{
					OFFSET 0 0 0
					CHANNELS 3 Zrotation Yrotation Xrotation
					JOINT RightShoulder
					{
						OFFSET -3.07414 1.06285 -0.44338
CHANNELS 3 Zrotation Xrotation Yrotation
						JOINT RightElbow
						{
OFFSET 0 -5.296130 0.000000
CHANNELS 3 Zrotation Xrotation Yrotation
							JOINT RightWrist
							{
OFFSET 0 -3.761440 -0.000000
CHANNELS 3 Zrotation Xrotation Yrotation
								JOINT rhand
								{
									OFFSET 0 0 0
CHANNELS 3 Zrotation Xrotation Yrotation
									JOINT RFingers
									{
OFFSET 0 -0.747320 0.000000
CHANNELS 3 Zrotation Xrotation Yrotation
										End Site
										{
OFFSET 0 -0.602510 0.000000
										}
									}
								}
								JOINT RThumb
								{
OFFSET 0 0.000000 0.000000
CHANNELS 3 Zrotation Xrotation Yrotation
									End Site
									{
OFFSET 0 -0.611710 0.611710
									}
								}
							}
						}
					}
				}
			}
		}
	}
}
MOTION
Frames: 6
Frame Time: .0083333
11.7292 16.4121 -25.7512 3.8577 -1.0140 2.8529 0.0000 0.0000 0.0000 -4.2764 -10.3436 -15.9725 16.6259 19.7248 80.0912 -0.0177 -3.9101 4.7399 0.0050 -0.4557 -1.2522 0.0000 0.0000 0.0000 37.4979 5.8168 -18.0279 -3.9836 -12.1385 36.2237 -0.8387 -3.5331 -18.9275 -1.6152 -8.0137 22.7558 -3.9172 0.0345 13.3393 0.2902 -0.5430 -0.1292 2.6319 -0.1085 -7.6017 -11.9091 -6.3064 -15.9001 8.9258 -7.4537 15.1974 4.0319 -3.4119 8.1161 0.0000 0.0000 0.0000 1.3194 11.6625 -33.2976 92.6839 -59.9728 62.3241 20.8138 -23.2708 -9.8267 0.0 0.0 0.0 -7.1250 0.0 0.0 -5.4435 40.4192 -0.6169 0.0000 0.0000 0.0000 -3.613 22.116 33.8143 -104.2502 -59.2186 -72.3086 -18.5355 -26.5891 -19.4767 0.0 0.0 0.0 7.1250 0.0 -0.0 6.3071 9.6227 5.1965
11.6866 16.3440 -25.3676 4.1474 -0.7063 2.5819 0.0000 0.0000 0.0000 -4.0614 -11.3757 -18.1049 16.8298 19.7573 80.6949 -0.0367 -3.9083 3.4819 0.0534 -1.4910 -4.1010 0.0000 0.0000 0.0000 37.5849 5.2583 -16.7350 -4.1342 -12.3369 36.9344 -0.9934 -3.9032 -20.6205 -1.3733 -7.4161 20.9541 -3.9395 0.1147 13.6091 0.0634 -0.4674 -0.0178 2.3899 -0.0763 -7.6416 -11.9693 -6.6646 -16.0694 9.0482 -7.9453 15.3134 4.0137 -3.6318 8.2479 -0.0000 -0.0000 0.0000 1.3472 12.1687 -33.2641 92.4766 -59.9768 62.1447 20.6414 -23.6951 -10.0114 0.0 0.0 0.0 -7.1250 0.0 0.0 -5.6213 40.5996 -0.6121 -0.0000 -0.0000 0.0000 -4.0358 20.8056 34.4515 -104.3798 -59.2041 -72.4199 -17.9653 -25.9784 -19.6519 0.0 0.0 0.0 7.1250 0.0 -0.0 6.6856 9.515 5.5272
11.6483 16.2845 -24.9655 4.5043 -0.4148 2.5338 0.0000 0.0000 0.0000 -3.9854 -12.3308 -20.3922 16.9232 19.7715 80.9711 -0.0446 -3.8893 2.5405 0.1973 -2.8601 -7.8894 0.0000 0.0000 0.0000 37.5119 4.6288 -15.4040 -4.1995 -12.4212 37.2389 -1.1614 -3.9681 -22.1440 -1.2545 -7.1008 20.0144 -3.8224 0.1972 13.5174 -0.2325 -0.3579 -0.0053 1.9857 -0.0349 -7.5864 -12.0134 -6.9863 -16.0510 9.0762 -8.3879 15.3292 3.9688 -3.8410 8.3035 -0.0000 0.0000 0.0000 1.49 13.2017 -33.4922 93.2276 -59.9606 62.7948 20.4369 -24.1964 -10.2041 0.0 0.0 0.0 -7.1250 0.0 0.0 -5.8294 40.7851 -0.6083 -0.0000 0.0000 0.0000 -4.4096 19.6951 35.0048 -105.1287 -59.1173 -73.063 -17.3565 -25.0409 -19.7405 0.0 0.0 0.0 7.1250 0.0 -0.0 7.0833 9.5008 5.8631
11.5993 16.2334 -24.5590 4.9522 0.0274 2.7396 0.0000 0.0000 0.0000 -3.9866 -13.5598 -22.8415 16.9664 19.7779 81.0987 -0.0357 -3.3944 1.8127 0.1806 -2.7373 -7.5481 0.0000 0.0000 0.0000 37.3363 4.1139 -14.2476 -4.2544 -12.4915 37.4936 -1.2987 -4.1301 -23.3716 -1.1633 -6.8470 19.2628 -3.9055 0.2347 12.9926 -0.4488 -0.3125 -0.0023 1.7907 -0.0198 -7.2906 -12.2345 -7.3322 -16.0273 9.1273 -8.8267 15.3559 3.9599 -4.0565 8.3715 -0.0000 0.0000 0.0000 1.6024 14.0921 -33.8486 94.0856 -59.9368 63.5375 19.9074 -24.8711 -10.2423 0.0 0.0 0.0 -7.1250 0.0 0.0 -6.2994 40.7781 -0.6588 -0.0000 0.0000 0.0000 -4.9152 18.7259 35.5404 -106.4516 -58.9522 -74.1974 -17.0783 -23.8766 -19.9337 0.0 0.0 0.0 7.1250 0.0 -0.0 7.2723 9.3374 6.0463
11.5494 16.1872 -24.1596 5.2344 0.4112 2.9868 0.0000 0.0000 0.0000 -3.8083 -14.6610 -25.3060 16.8926 19.7669 80.8806 0.0117 -2.9517 -2.6750 1.0192 -6.4228 -18.0161 0.0000 0.0000 0.0000 37.3801 3.7944 -12.8822 -4.2205 -12.4482 37.3367 -1.3743 -4.3856 -24.1102 -1.0639 -6.5575 18.4108 -3.7814 0.2821 12.5136 -0.6496 -0.2234 -0.0297 1.4893 0.0114 -7.0559 -12.4987 -7.7341 -16.0157 9.2316 -9.3467 15.4456 3.9631 -4.3072 8.4785 -0.0000 0.0000 0.0000 1.9125 14.6125 -34.4228 94.4921 -59.9236 63.8893 19.4299 -25.5237 -10.5509 0.0 0.0 0.0 -7.1250 0.0 0.0 -6.7682 41.0588 -0.6613 -0.0000 0.0000 0.0000 -5.3162 17.8927 36.0582 -108.2323 -58.7059 -75.7211 -16.9068 -22.8152 -20.4561 0.0 0.0 0.0 7.1250 0.0 -0.0 7.4090 8.8246 6.2385
11.5064 16.1546 -23.7743 5.1180 -0.1997 3.0336 0.0000 0.0000 0.0000 -3.3507 -14.7826 -27.5681 16.6916 19.7355 80.2859 0.0543 -2.5923 -4.2502 1.1017 -6.6693 -18.7393 0.0000 0.0000 0.0000 37.8476 4.2184 -10.8063 -4.1385 -12.3425 36.9544 -1.4027 -4.4978 -24.3925 -0.9569 -6.2290 17.4504 -3.2074 0.6490 12.5813 -0.8598 0.3263 -0.1434 0.8404 0.2586 -7.2394 -12.7834 -8.0902 -16.0453 9.3920 -9.8098 15.5901 3.9947 -4.5254 8.6109 0.0000 0.0000 0.0000 2.4192 15.337 -35.1688 95.3138 -59.893 64.6002 19.2263 -26.02 -11.2471 0.0 0.0 0.0 -7.1250 0.0 0.0 -7.0673 41.7677 -0.5667 0.0000 0.0000 0.0000 -5.6127 17.1148 36.5693 -110.1202 -58.4137 -77.3318 -16.5356 -22.0889 -20.9032 0.0 0.0 0.0 7.1250 0.0 -0.0 7.6693 8.4153 6.5247
